<svg width="37.61" height="53" ><path d="M18.45 52.379l-2.266-1.707-2.655.889a.593.593 0 01-.676-.23L11.2 48.974l-2.787-.017a.613.613 0 01-.576-.438l-.875-2.777-2.647-.92a.636.636 0 01-.415-.6l-.018-2.927-2.248-1.733a.665.665 0 01-.22-.708l.848-2.789-1.627-2.376a.669.669 0 010-.747l1.627-2.376-.848-2.787a.667.667 0 01.22-.709l2.248-1.733.018-2.927a.639.639 0 01.415-.6l2.647-.919.875-2.778a.615.615 0 01.576-.439l2.134-.012L7.476 1.269A.662.662 0 017.723.62a.584.584 0 01.349-.114.585.585 0 01.313.089l3.833 2.412L14.833.658c.009-.006.018-.013.029-.019h0l.018-.013.018-.013h0a.17.17 0 01.03-.022.039.039 0 01.013-.006h.005a.458.458 0 01.081-.034c.023-.007.052-.02.077-.025s.043 0 .064-.005H15.272a.5.5 0 01.057.01l.024.007h.021a.606.606 0 01.062.016.03.03 0 00.012 0h.008a.342.342 0 01.037.022.121.121 0 00.024.016h.011c.011.008.026.013.038.021l3.223 2.389L22.021.613c.01-.008.024-.012.034-.019l.021-.01.021-.015c.013-.009.025-.016.037-.022s0 0 .01 0a.013.013 0 00.008 0 .514.514 0 01.075-.02h.014l.028-.007.047-.008h.108a.492.492 0 01.058.005c.024.005.046.015.068.021h.024a.379.379 0 01.07.029h.006a.119.119 0 01.018.007.066.066 0 01.021.018l.027.021.021.015h0a.12.12 0 01.024.017l2.615 2.349L29.208.582a.6.6 0 01.314-.089.585.585 0 01.349.114.661.661 0 01.248.649l-3.07 16.393 2.13.012a.612.612 0 01.574.439l.878 2.778 2.647.919a.637.637 0 01.417.6l.015 2.926 2.248 1.733a.661.661 0 01.219.709l-.846 2.787 1.624 2.376a.662.662 0 010 .747l-1.624 2.376.846 2.789a.658.658 0 01-.219.708l-2.248 1.733-.015 2.927a.634.634 0 01-.417.6l-2.647.92-.878 2.777a.61.61 0 01-.574.438l-2.788.017-1.653 2.357a.592.592 0 01-.675.23l-2.657-.889-2.265 1.707a.579.579 0 01-.356.12.575.575 0 01-.335-.106zm-1.8-2.931l2.156 1.625 2.159-1.625a.591.591 0 01.54-.091l2.531.846 1.574-2.246a.605.605 0 01.489-.261l2.656-.015.836-2.647a.616.616 0 01.386-.405l2.52-.878.016-2.789a.656.656 0 01.25-.51l2.141-1.652-.809-2.656a.675.675 0 01.085-.568l1.551-2.265-1.551-2.266a.67.67 0 01-.085-.566l.809-2.656-2.141-1.651a.656.656 0 01-.25-.511l-.016-2.788-2.52-.877a.617.617 0 01-.386-.406l-.836-2.646-2.656-.016a.6.6 0 01-.489-.26l-1.574-2.248-2.531.848a.581.581 0 01-.54-.09l-2.159-1.625-2.156 1.625a.583.583 0 01-.54.09l-2.533-.848-1.572 2.248a.6.6 0 01-.487.26l-2.658.016-.837 2.646a.617.617 0 01-.387.406l-2.52.877-.015 2.788a.654.654 0 01-.249.511l-2.14 1.651.807 2.656a.664.664 0 01-.086.566l-1.55 2.266 1.55 2.265a.668.668 0 01.086.568L2.712 38.8l2.14 1.652a.654.654 0 01.249.51l.015 2.789 2.52.878a.615.615 0 01.387.405l.837 2.647 2.658.015a.606.606 0 01.487.261l1.572 2.246 2.533-.846a.591.591 0 01.185-.031.6.6 0 01.353.122zm8.109-34.156l1.193 1.7 2.729-14.57-3.033 1.91a.6.6 0 01-.314.092.6.6 0 01-.4-.156l-2.022-1.816-.829 13.277 2-.67a.6.6 0 01.186-.03.6.6 0 01.488.264zm-13.092 1.7l1.189-1.7a.593.593 0 01.676-.23l2 .671-.039-.653-.789-12.626-2.023 1.816a.588.588 0 01-.4.156.577.577 0 01-.311-.092l-3.035-1.91zm7.5-2.745l1.715 1.291.818-13.1-2.539 1.877a.584.584 0 01-.351.114.586.586 0 01-.351-.114l-2.531-1.876.816 13.1 1.712-1.289a.583.583 0 01.354-.12.585.585 0 01.35.116zM5.686 33.314c0-7.591 5.886-13.766 13.118-13.766s13.12 6.175 13.12 13.766-5.887 13.769-13.12 13.769S5.686 40.904 5.686 33.314zm1.217 0c0 6.887 5.341 12.491 11.9 12.491s11.9-5.6 11.9-12.491-5.341-12.488-11.9-12.488-11.9 5.599-11.9 12.488zm16.774 7.845l-4.872-2.686-4.87 2.686a.582.582 0 01-.643-.049.655.655 0 01-.242-.624l.931-5.693-3.939-4.03a.665.665 0 01-.156-.657.611.611 0 01.493-.432l5.446-.832 2.434-5.179a.62.62 0 011.093 0l2.437 5.179 5.445.832a.617.617 0 01.493.432.67.67 0 01-.156.657l-3.941 4.03.932 5.693a.651.651 0 01-.244.624.579.579 0 01-.357.123.572.572 0 01-.284-.077zm-4.587-3.974l4.063 2.24-.778-4.746a.655.655 0 01.176-.566l3.286-3.363-4.542-.692a.607.607 0 01-.458-.35l-2.032-4.32-2.03 4.32a.612.612 0 01-.46.35l-4.542.692 3.287 3.363a.665.665 0 01.177.566l-.777 4.746 4.063-2.24a.582.582 0 01.282-.073.6.6 0 01.285.07z" fill="brown" stroke="transparent" stroke-miterlimit="10"></path></svg>